<?xml version="1.0" standalone="no"?>
<!DOCTYPE svg PUBLIC "-//W3C//DTD SVG 20010904//EN"
 "http://www.w3.org/TR/2001/REC-SVG-20010904/DTD/svg10.dtd">
<svg version="1.0" xmlns="http://www.w3.org/2000/svg"
 width="1006.000000pt" height="263.000000pt" viewBox="0 0 1006.000000 263.000000"
 preserveAspectRatio="xMidYMid meet">

<g transform="translate(0.000000,263.000000) scale(0.100000,-0.100000)"
fill="#000000" stroke="none">
<path d="M7497 2403 c-4 -124 -7 -291 -7 -370 0 -113 -3 -143 -13 -143 -8 0
-19 10 -24 23 -21 44 -86 108 -134 133 -106 53 -151 59 -454 59 -318 0 -396
-11 -521 -70 -187 -90 -248 -249 -246 -650 1 -313 28 -428 126 -533 107 -114
304 -162 661 -162 327 1 489 48 573 170 15 22 35 39 45 40 15 0 17 -11 17 -85
l0 -85 240 0 240 0 0 950 0 950 -248 0 -249 0 -6 -227z m-274 -673 c146 -14
206 -47 243 -135 23 -53 31 -267 14 -350 -28 -136 -129 -174 -455 -175 -328 0
-401 40 -426 231 -12 89 -6 219 12 282 15 55 62 103 120 122 90 30 319 42 492
25z"/>
<path d="M14 2093 c4 -10 142 -320 308 -690 l300 -672 104 -3 105 -3 -39 -80
c-80 -163 -94 -169 -404 -173 l-238 -4 0 -175 0 -175 333 5 c364 5 383 7 497
68 42 22 74 49 96 79 29 39 874 1812 874 1833 0 4 -123 7 -272 7 l-273 0 -220
-506 c-121 -278 -222 -507 -225 -509 -3 -2 -95 226 -204 506 l-200 509 -274 0
c-257 0 -274 -1 -268 -17z"/>
<path d="M2585 2103 c-164 -11 -322 -45 -405 -88 -53 -27 -130 -105 -157 -159
-48 -95 -58 -168 -57 -446 1 -193 5 -274 17 -332 42 -201 148 -301 373 -351
94 -21 124 -22 559 -22 401 0 472 2 550 18 113 22 216 72 279 134 104 101 130
231 123 598 -6 313 -25 390 -125 489 -128 128 -332 168 -851 164 -141 -1 -278
-3 -306 -5z m613 -396 c82 -24 114 -47 142 -102 23 -47 25 -60 25 -200 0 -166
-9 -206 -57 -260 -54 -62 -99 -70 -383 -70 -211 0 -259 3 -307 18 -77 23 -122
64 -139 124 -16 59 -17 281 0 339 25 92 90 144 201 163 86 15 454 6 518 -12z"/>
<path d="M4070 1415 l0 -695 244 0 243 0 6 387 c4 322 8 397 21 441 29 90 92
145 196 170 128 31 399 21 484 -17 54 -24 102 -76 115 -126 7 -26 11 -186 11
-447 l0 -408 251 0 250 0 -3 472 c-4 405 -7 481 -21 531 -52 178 -167 291
-348 344 -101 29 -319 47 -459 38 -246 -16 -371 -66 -456 -185 -56 -79 -64
-70 -64 70 l0 120 -235 0 -235 0 0 -695z"/>
<path d="M8290 1951 l0 -160 543 -3 542 -3 47 -23 c61 -30 77 -65 85 -187 6
-90 5 -95 -14 -95 -11 0 -28 9 -39 21 -28 31 -82 56 -149 68 -75 14 -511 14
-646 0 -243 -24 -363 -88 -425 -224 -65 -143 -55 -391 21 -503 52 -76 157
-124 312 -142 187 -21 600 -7 709 25 73 21 164 85 198 139 45 72 56 62 56 -49
l0 -95 241 0 241 0 -4 512 c-5 547 -6 567 -58 667 -26 52 -100 124 -153 150
-108 52 -133 54 -844 58 l-663 4 0 -160z m1152 -679 c43 -27 64 -80 54 -134
-17 -93 -137 -128 -441 -128 -281 0 -365 35 -365 149 0 54 43 104 102 119 73
19 86 20 353 18 253 -1 261 -2 297 -24z"/>
<path d="M9826 548 l-35 -43 34 -3 c29 -3 45 5 91 42 l56 46 -55 0 c-53 0 -57
-2 -91 -42z"/>
<path d="M8270 240 l0 -220 60 0 60 0 0 55 0 55 53 0 c159 0 253 93 217 213
-15 49 -59 93 -108 107 -20 5 -92 10 -159 10 l-123 0 0 -220z m255 110 c20
-17 19 -79 -2 -102 -12 -13 -31 -18 -75 -18 l-58 0 0 71 0 72 60 -6 c34 -3 67
-11 75 -17z"/>
<path d="M8740 240 l0 -220 175 0 175 0 0 45 0 45 -115 0 -115 0 0 45 0 45
100 0 100 0 0 45 0 45 -100 0 -100 0 0 40 0 40 110 0 110 0 0 45 0 45 -170 0
-170 0 0 -220z"/>
<path d="M9170 240 l0 -220 60 0 60 0 0 60 0 60 35 0 c31 0 38 -6 75 -60 l41
-60 65 0 64 0 -43 65 -44 66 38 37 c86 86 49 225 -69 260 -22 7 -94 12 -161
12 l-121 0 0 -220z m227 119 c34 -13 43 -26 43 -63 0 -48 -25 -66 -92 -66
l-58 0 0 70 0 70 39 0 c22 0 52 -5 68 -11z"/>
<path d="M9640 302 c0 -146 2 -162 23 -203 52 -101 230 -123 320 -40 55 50 61
73 65 244 l4 157 -61 0 -61 0 0 -134 c0 -184 -14 -216 -94 -216 -25 0 -40 7
-55 26 -19 24 -21 40 -21 175 l0 149 -60 0 -60 0 0 -158z"/>
</g>
</svg>
